<svg xmlns="http://www.w3.org/2000/svg" viewBox="0 0 820 480" width="820" height="480" font-family="system-ui, -apple-system, sans-serif">
  <rect width="820" height="480" fill="#0D1117"/>

  <!-- Title -->
  <text x="410" y="36" text-anchor="middle" font-size="18" font-weight="700" fill="#E6EDF3">Python vs TypeScript — Resources y Prompts</text>
  <text x="410" y="56" text-anchor="middle" font-size="13" fill="#8B949E">Mismos primitivos, distinta sintaxis — concepto idéntico</text>

  <!-- PYTHON column (x=20, w=385) -->
  <rect x="20" y="74" width="385" height="28" rx="6" fill="#3FB950" fill-opacity="0.15" stroke="#3FB950" stroke-width="1"/>
  <text x="212" y="92" text-anchor="middle" font-size="12" font-weight="700" fill="#3FB950">Python — FastMCP (@decoradores)</text>

  <!-- Python Resource estático -->
  <rect x="20" y="110" width="385" height="80" rx="8" fill="#161B22" stroke="#3FB950" stroke-width="1"/>
  <text x="30" y="127" font-size="10" font-weight="700" fill="#3FB950">Resource estático</text>
  <text x="30" y="143" font-size="9" fill="#BC8CFF">@mcp.resource(</text>
  <text x="118" y="143" font-size="9" fill="#F0883E">"tasks://all"</text>
  <text x="165" y="143" font-size="9" fill="#BC8CFF">)</text>
  <text x="30" y="158" font-size="9" fill="#BC8CFF">async def</text>
  <text x="82" y="158" font-size="9" fill="#3FB950">all_tasks</text>
  <text x="128" y="158" font-size="9" fill="#E6EDF3">() -> str:</text>
  <text x="30" y="173" font-size="9" fill="#BC8CFF">    return</text>
  <text x="78" y="173" font-size="9" fill="#E6EDF3">json.dumps(TASKS_DB)</text>
  <text x="30" y="183" font-size="9" fill="#8B949E">    # retorno str = mimeType text/plain por defecto</text>

  <!-- Python Resource template -->
  <rect x="20" y="198" width="385" height="80" rx="8" fill="#161B22" stroke="#3FB950" stroke-width="1"/>
  <text x="30" y="215" font-size="10" font-weight="700" fill="#3FB950">Resource template</text>
  <text x="30" y="231" font-size="9" fill="#BC8CFF">@mcp.resource(</text>
  <text x="118" y="231" font-size="9" fill="#F0883E">"tasks://{task_id}"</text>
  <text x="197" y="231" font-size="9" fill="#BC8CFF">)</text>
  <text x="30" y="246" font-size="9" fill="#BC8CFF">async def</text>
  <text x="82" y="246" font-size="9" fill="#3FB950">get_task_by_id</text>
  <text x="152" y="246" font-size="9" fill="#E6EDF3">(task_id: str) -> str:</text>
  <text x="30" y="261" font-size="9" fill="#E6EDF3">    task = next((t </text>
  <text x="130" y="261" font-size="9" fill="#BC8CFF">for</text>
  <text x="145" y="261" font-size="9" fill="#E6EDF3">t </text>
  <text x="152" y="261" font-size="9" fill="#BC8CFF">in</text>
  <text x="163" y="261" font-size="9" fill="#E6EDF3">TASKS_DB</text>
  <text x="211" y="261" font-size="9" fill="#BC8CFF">if</text>
  <text x="222" y="261" font-size="9" fill="#E6EDF3">str(t[</text>
  <text x="253" y="261" font-size="9" fill="#F0883E">"id"</text>
  <text x="272" y="261" font-size="9" fill="#E6EDF3">]) == task_id),</text>
  <text x="30" y="271" font-size="9" fill="#BC8CFF">    return</text>
  <text x="78" y="271" font-size="9" fill="#E6EDF3">json.dumps(task)</text>

  <!-- Python Prompt -->
  <rect x="20" y="286" width="385" height="96" rx="8" fill="#161B22" stroke="#F0883E" stroke-width="1"/>
  <text x="30" y="303" font-size="10" font-weight="700" fill="#F0883E">Prompt con argumentos</text>
  <text x="30" y="319" font-size="9" fill="#BC8CFF">@mcp.prompt()</text>
  <text x="30" y="334" font-size="9" fill="#BC8CFF">async def</text>
  <text x="82" y="334" font-size="9" fill="#3FB950">daily_review</text>
  <text x="142" y="334" font-size="9" fill="#E6EDF3">(date: str) -> list[</text>
  <text x="262" y="334" font-size="9" fill="#BC8CFF">Message</text>
  <text x="300" y="334" font-size="9" fill="#E6EDF3">]:</text>
  <text x="30" y="349" font-size="9" fill="#BC8CFF">    return</text>
  <text x="78" y="349" font-size="9" fill="#E6EDF3">[Message(role=</text>
  <text x="166" y="349" font-size="9" fill="#F0883E">"user"</text>
  <text x="192" y="349" font-size="9" fill="#E6EDF3">,</text>
  <text x="30" y="364" font-size="9" fill="#E6EDF3">        content=TextContent(type=</text>
  <text x="210" y="364" font-size="9" fill="#F0883E">"text"</text>
  <text x="236" y="364" font-size="9" fill="#E6EDF3">,</text>
  <text x="30" y="379" font-size="9" fill="#E6EDF3">        text=</text>
  <text x="72" y="379" font-size="9" fill="#3FB950">f"Revisa las tareas del {date}"</text>
  <text x="30" y="388" font-size="9" fill="#E6EDF3">    ))]</text>

  <!-- TYPESCRIPT column (x=415, w=385) -->
  <rect x="415" y="74" width="385" height="28" rx="6" fill="#58A6FF" fill-opacity="0.15" stroke="#58A6FF" stroke-width="1"/>
  <text x="607" y="92" text-anchor="middle" font-size="12" font-weight="700" fill="#58A6FF">TypeScript — Server (métodos directos)</text>

  <!-- TS Resource estático -->
  <rect x="415" y="110" width="385" height="80" rx="8" fill="#161B22" stroke="#58A6FF" stroke-width="1"/>
  <text x="425" y="127" font-size="10" font-weight="700" fill="#58A6FF">Resource estático</text>
  <text x="425" y="143" font-size="9" fill="#E6EDF3">server.</text>
  <text x="458" y="143" font-size="9" fill="#3FB950">resource</text>
  <text x="496" y="143" font-size="9" fill="#E6EDF3">(</text>
  <text x="502" y="143" font-size="9" fill="#F0883E">"tasks://all"</text>
  <text x="557" y="143" font-size="9" fill="#E6EDF3">,</text>
  <text x="563" y="143" font-size="9" fill="#BC8CFF">async</text>
  <text x="590" y="143" font-size="9" fill="#E6EDF3">() => ({</text>
  <text x="425" y="158" font-size="9" fill="#E6EDF3">  contents: [{</text>
  <text x="425" y="173" font-size="9" fill="#E6EDF3">    uri:</text>
  <text x="450" y="173" font-size="9" fill="#F0883E">"tasks://all"</text>
  <text x="500" y="173" font-size="9" fill="#E6EDF3">,</text>
  <text x="508" y="173" font-size="9" fill="#58A6FF">text:</text>
  <text x="534" y="173" font-size="9" fill="#E6EDF3">JSON.stringify(tasksDb) }]</text>
  <text x="425" y="183" font-size="9" fill="#E6EDF3">}))</text>

  <!-- TS Resource template -->
  <rect x="415" y="198" width="385" height="80" rx="8" fill="#161B22" stroke="#58A6FF" stroke-width="1"/>
  <text x="425" y="215" font-size="10" font-weight="700" fill="#58A6FF">Resource template</text>
  <text x="425" y="231" font-size="9" fill="#E6EDF3">server.</text>
  <text x="458" y="231" font-size="9" fill="#3FB950">resource</text>
  <text x="496" y="231" font-size="9" fill="#E6EDF3">(</text>
  <text x="502" y="231" font-size="9" fill="#F0883E">"tasks://{id}"</text>
  <text x="556" y="231" font-size="9" fill="#E6EDF3">,</text>
  <text x="564" y="231" font-size="9" fill="#E6EDF3">{ id:</text>
  <text x="587" y="231" font-size="9" fill="#BC8CFF">z.string()</text>
  <text x="634" y="231" font-size="9" fill="#E6EDF3">},</text>
  <text x="425" y="246" font-size="9" fill="#BC8CFF">async</text>
  <text x="451" y="246" font-size="9" fill="#E6EDF3">({ id }) => ({</text>
  <text x="425" y="261" font-size="9" fill="#E6EDF3">  contents: [{</text>
  <text x="425" y="276" font-size="9" fill="#E6EDF3">    uri:</text>
  <text x="450" y="276" font-size="9" fill="#3FB950">`tasks://${id}`</text>
  <text x="508" y="276" font-size="9" fill="#E6EDF3">,</text>
  <text x="516" y="276" font-size="9" fill="#58A6FF">text:</text>
  <text x="542" y="276" font-size="9" fill="#E6EDF3">JSON.stringify(findById(id)) }]</text>

  <!-- TS Prompt -->
  <rect x="415" y="286" width="385" height="96" rx="8" fill="#161B22" stroke="#F0883E" stroke-width="1"/>
  <text x="425" y="303" font-size="10" font-weight="700" fill="#F0883E">Prompt con argumentos</text>
  <text x="425" y="319" font-size="9" fill="#E6EDF3">server.</text>
  <text x="458" y="319" font-size="9" fill="#3FB950">prompt</text>
  <text x="490" y="319" font-size="9" fill="#E6EDF3">(</text>
  <text x="496" y="319" font-size="9" fill="#F0883E">"daily_review"</text>
  <text x="554" y="319" font-size="9" fill="#E6EDF3">,</text>
  <text x="562" y="319" font-size="9" fill="#E6EDF3">{ date:</text>
  <text x="595" y="319" font-size="9" fill="#BC8CFF">z.string()</text>
  <text x="643" y="319" font-size="9" fill="#E6EDF3">},</text>
  <text x="425" y="334" font-size="9" fill="#BC8CFF">async</text>
  <text x="451" y="334" font-size="9" fill="#E6EDF3">({ date }) => ({</text>
  <text x="425" y="349" font-size="9" fill="#E6EDF3">  messages: [{</text>
  <text x="425" y="364" font-size="9" fill="#58A6FF">    role:</text>
  <text x="456" y="364" font-size="9" fill="#F0883E">"user"</text>
  <text x="482" y="364" font-size="9" fill="#E6EDF3">,</text>
  <text x="490" y="364" font-size="9" fill="#58A6FF">content:</text>
  <text x="533" y="364" font-size="9" fill="#E6EDF3">{ type:</text>
  <text x="567" y="364" font-size="9" fill="#F0883E">"text"</text>
  <text x="593" y="364" font-size="9" fill="#E6EDF3">,</text>
  <text x="425" y="379" font-size="9" fill="#58A6FF">      text:</text>
  <text x="465" y="379" font-size="9" fill="#3FB950">`Revisa las tareas del ${date}`</text>
  <text x="425" y="388" font-size="9" fill="#E6EDF3">  }}] }))</text>

  <!-- Equivalence note -->
  <rect x="20" y="400" width="780" height="64" rx="8" fill="#161B22" stroke="#6B4FBB" stroke-width="1.5"/>
  <text x="410" y="420" text-anchor="middle" font-size="11" font-weight="700" fill="#BC8CFF">Equivalencias clave Python ↔ TypeScript</text>
  <text x="40" y="438" font-size="9" fill="#3FB950">@mcp.resource("uri")</text>
  <text x="175" y="438" font-size="9" fill="#8B949E">↔</text>
  <text x="192" y="438" font-size="9" fill="#58A6FF">server.resource("uri", handler)</text>
  <text x="390" y="438" font-size="9" fill="#8B949E">|</text>
  <text x="406" y="438" font-size="9" fill="#3FB950">@mcp.resource("uri/{x}")</text>
  <text x="555" y="438" font-size="9" fill="#8B949E">↔</text>
  <text x="571" y="438" font-size="9" fill="#58A6FF">server.resource("uri/{x}", {x: z.string()}, handler)</text>
  <text x="40" y="456" font-size="9" fill="#3FB950">@mcp.prompt()</text>
  <text x="116" y="456" font-size="9" fill="#8B949E">↔</text>
  <text x="132" y="456" font-size="9" fill="#58A6FF">server.prompt("name", args, handler)</text>
  <text x="390" y="456" font-size="9" fill="#8B949E">|</text>
  <text x="406" y="456" font-size="9" fill="#8B949E">return list[Message]</text>
  <text x="520" y="456" font-size="9" fill="#8B949E">↔</text>
  <text x="536" y="456" font-size="9" fill="#8B949E">return { messages: [...] }</text>
</svg>
