<svg xmlns="http://www.w3.org/2000/svg" viewBox="0 0 820 440" width="820" height="440" style="font-family: system-ui, -apple-system, sans-serif;">
  <!-- Background -->
  <rect width="820" height="440" fill="#0D1117"/>

  <!-- Title -->
  <text x="410" y="34" text-anchor="middle" fill="#E6EDF3" font-size="16" font-weight="700">Ciclo de Mensajes JSON-RPC 2.0 en MCP</text>

  <!-- MCP Client box -->
  <rect x="40" y="60" width="160" height="320" rx="10" fill="#161B22" stroke="#6B4FBB" stroke-width="2"/>
  <text x="120" y="87" text-anchor="middle" fill="#BC8CFF" font-size="13" font-weight="700">MCP Client</text>
  <text x="120" y="104" text-anchor="middle" fill="#8B949E" font-size="10">(Host interno)</text>

  <!-- MCP Server box -->
  <rect x="620" y="60" width="160" height="320" rx="10" fill="#161B22" stroke="#3FB950" stroke-width="2"/>
  <text x="700" y="87" text-anchor="middle" fill="#3FB950" font-size="13" font-weight="700">MCP Server</text>
  <text x="700" y="104" text-anchor="middle" fill="#8B949E" font-size="10">(proceso externo)</text>

  <!-- Timeline lines -->
  <line x1="120" y1="115" x2="120" y2="390" stroke="#30363D" stroke-width="1.5" stroke-dasharray="4,3"/>
  <line x1="700" y1="115" x2="700" y2="390" stroke="#30363D" stroke-width="1.5" stroke-dasharray="4,3"/>

  <!-- === REQUEST === -->
  <text x="260" y="138" text-anchor="middle" fill="#F0883E" font-size="11" font-weight="700">REQUEST</text>
  <!-- arrow -->
  <line x1="130" y1="150" x2="688" y2="150" stroke="#F0883E" stroke-width="2"/>
  <polygon points="688,145 700,150 688,155" fill="#F0883E"/>
  <!-- JSON label -->
  <rect x="220" y="155" width="280" height="50" rx="6" fill="#1C2128" stroke="#F0883E" stroke-width="1"/>
  <text x="360" y="173" text-anchor="middle" fill="#E6EDF3" font-size="10" font-family="monospace">{"jsonrpc": "2.0",</text>
  <text x="360" y="188" text-anchor="middle" fill="#E6EDF3" font-size="10" font-family="monospace">"method": "tools/call", "id": 1}</text>

  <!-- === PROCESSING === -->
  <rect x="650" y="218" width="100" height="26" rx="5" fill="#21262D" stroke="#3FB950" stroke-width="1"/>
  <text x="700" y="235" text-anchor="middle" fill="#3FB950" font-size="10">procesando...</text>

  <!-- === RESPONSE === -->
  <text x="555" y="272" text-anchor="middle" fill="#58A6FF" font-size="11" font-weight="700">RESPONSE</text>
  <!-- arrow -->
  <line x1="690" y1="284" x2="132" y2="284" stroke="#58A6FF" stroke-width="2"/>
  <polygon points="132,279 120,284 132,289" fill="#58A6FF"/>
  <!-- JSON label -->
  <rect x="220" y="290" width="280" height="50" rx="6" fill="#1C2128" stroke="#58A6FF" stroke-width="1"/>
  <text x="360" y="308" text-anchor="middle" fill="#E6EDF3" font-size="10" font-family="monospace">{"jsonrpc": "2.0",</text>
  <text x="360" y="323" text-anchor="middle" fill="#E6EDF3" font-size="10" font-family="monospace">"result": {...}, "id": 1}</text>

  <!-- === NOTIFICATION (no id) === -->
  <text x="260" y="363" text-anchor="middle" fill="#BC8CFF" font-size="11" font-weight="700">NOTIFICATION</text>
  <!-- arrow -->
  <line x1="130" y1="374" x2="688" y2="374" stroke="#BC8CFF" stroke-width="1.5" stroke-dasharray="6,3"/>
  <polygon points="688,369 700,374 688,379" fill="#BC8CFF"/>
  <text x="360" y="396" text-anchor="middle" fill="#8B949E" font-size="10">sin "id" → no espera respuesta</text>

  <!-- Legend -->
  <rect x="40" y="400" width="740" height="30" rx="6" fill="#161B22"/>
  <rect x="56" y="412" width="12" height="3" fill="#F0883E" rx="1"/>
  <text x="74" y="421" fill="#8B949E" font-size="10">Request (con id)</text>
  <rect x="180" y="412" width="12" height="3" fill="#58A6FF" rx="1"/>
  <text x="198" y="421" fill="#8B949E" font-size="10">Response (mismo id)</text>
  <rect x="330" y="412" width="12" height="3" fill="#BC8CFF" rx="1" stroke-dasharray="4,2"/>
  <text x="348" y="421" fill="#8B949E" font-size="10">Notification (sin id, fire-and-forget)</text>
  <text x="680" y="421" fill="#8B949E" font-size="10">Error → "error" en lugar de "result"</text>
</svg>
