<svg xmlns="http://www.w3.org/2000/svg" viewBox="0 0 800 380" width="800" height="380">
  <!-- Background -->
  <rect width="800" height="380" fill="#0D1117"/>

  <!-- Title -->
  <text x="400" y="38" font-family="system-ui, sans-serif" font-size="17" font-weight="700" fill="#E6EDF3" text-anchor="middle">MCP vs Alternativas de Integración</text>
  <text x="400" y="58" font-family="system-ui, sans-serif" font-size="12" fill="#8B949E" text-anchor="middle">MCP · Function Calling · REST API · Plugins</text>

  <!-- ─── Column headers ─── -->
  <rect x="40" y="76" width="168" height="34" rx="6" fill="#161B22" stroke="#6B4FBB" stroke-width="2"/>
  <text x="124" y="98" font-family="system-ui, sans-serif" font-size="13" font-weight="700" fill="#6B4FBB" text-anchor="middle">MCP</text>

  <rect x="220" y="76" width="168" height="34" rx="6" fill="#161B22" stroke="#30363D" stroke-width="1.5"/>
  <text x="304" y="98" font-family="system-ui, sans-serif" font-size="13" font-weight="600" fill="#8B949E" text-anchor="middle">Function Calling</text>

  <rect x="400" y="76" width="168" height="34" rx="6" fill="#161B22" stroke="#30363D" stroke-width="1.5"/>
  <text x="484" y="98" font-family="system-ui, sans-serif" font-size="13" font-weight="600" fill="#8B949E" text-anchor="middle">REST API</text>

  <rect x="580" y="76" width="168" height="34" rx="6" fill="#161B22" stroke="#30363D" stroke-width="1.5"/>
  <text x="664" y="98" font-family="system-ui, sans-serif" font-size="13" font-weight="600" fill="#8B949E" text-anchor="middle">Plugins</text>

  <!-- ─── Row labels ─── -->
  <!-- Row 1: Estandarizado -->
  <text x="12" y="142" font-family="system-ui, sans-serif" font-size="11" fill="#8B949E" text-anchor="start" transform="rotate(-0)">Estandarizado</text>
  <rect x="40" y="124" width="168" height="32" rx="4" fill="#0D2A0D"/>
  <text x="124" y="144" font-family="system-ui, sans-serif" font-size="12" fill="#3FB950" text-anchor="middle">✓ Sí</text>
  <rect x="220" y="124" width="168" height="32" rx="4" fill="#1A0C00"/>
  <text x="304" y="144" font-family="system-ui, sans-serif" font-size="12" fill="#F0883E" text-anchor="middle">× Por proveedor</text>
  <rect x="400" y="124" width="168" height="32" rx="4" fill="#1A0C00"/>
  <text x="484" y="144" font-family="system-ui, sans-serif" font-size="12" fill="#F0883E" text-anchor="middle">× Por proveedor</text>
  <rect x="580" y="124" width="168" height="32" rx="4" fill="#1A0C00"/>
  <text x="664" y="144" font-family="system-ui, sans-serif" font-size="12" fill="#F0883E" text-anchor="middle">× Deprecado</text>

  <!-- Row 2: Multi-LLM -->
  <text x="12" y="192" font-family="system-ui, sans-serif" font-size="11" fill="#8B949E">Multi-LLM</text>
  <rect x="40" y="164" width="168" height="32" rx="4" fill="#0D2A0D"/>
  <text x="124" y="184" font-family="system-ui, sans-serif" font-size="12" fill="#3FB950" text-anchor="middle">✓ Sí</text>
  <rect x="220" y="164" width="168" height="32" rx="4" fill="#1A0C00"/>
  <text x="304" y="184" font-family="system-ui, sans-serif" font-size="12" fill="#F0883E" text-anchor="middle">× Solo su LLM</text>
  <rect x="400" y="164" width="168" height="32" rx="4" fill="#0D2A0D"/>
  <text x="484" y="184" font-family="system-ui, sans-serif" font-size="12" fill="#3FB950" text-anchor="middle">✓ Sí</text>
  <rect x="580" y="164" width="168" height="32" rx="4" fill="#1A0C00"/>
  <text x="664" y="184" font-family="system-ui, sans-serif" font-size="12" fill="#F0883E" text-anchor="middle">× Solo ChatGPT</text>

  <!-- Row 3: Bidireccional -->
  <text x="12" y="232" font-family="system-ui, sans-serif" font-size="11" fill="#8B949E">Bidireccional</text>
  <rect x="40" y="204" width="168" height="32" rx="4" fill="#0D2A0D"/>
  <text x="124" y="224" font-family="system-ui, sans-serif" font-size="12" fill="#3FB950" text-anchor="middle">✓ Sí</text>
  <rect x="220" y="204" width="168" height="32" rx="4" fill="#1A0C00"/>
  <text x="304" y="224" font-family="system-ui, sans-serif" font-size="12" fill="#F0883E" text-anchor="middle">× Solo output</text>
  <rect x="400" y="204" width="168" height="32" rx="4" fill="#1A0C00"/>
  <text x="484" y="224" font-family="system-ui, sans-serif" font-size="12" fill="#F0883E" text-anchor="middle">× Solo output</text>
  <rect x="580" y="204" width="168" height="32" rx="4" fill="#0D2A0D"/>
  <text x="664" y="224" font-family="system-ui, sans-serif" font-size="12" fill="#3FB950" text-anchor="middle">✓ Parcial</text>

  <!-- Row 4: Tools + Resources + Prompts -->
  <text x="12" y="272" font-family="system-ui, sans-serif" font-size="11" fill="#8B949E">Primitivos</text>
  <rect x="40" y="244" width="168" height="32" rx="4" fill="#0D2A0D"/>
  <text x="124" y="264" font-family="system-ui, sans-serif" font-size="11" fill="#3FB950" text-anchor="middle">T + R + P</text>
  <rect x="220" y="244" width="168" height="32" rx="4" fill="#161B22"/>
  <text x="304" y="264" font-family="system-ui, sans-serif" font-size="11" fill="#8B949E" text-anchor="middle">Solo Tools</text>
  <rect x="400" y="244" width="168" height="32" rx="4" fill="#161B22"/>
  <text x="484" y="264" font-family="system-ui, sans-serif" font-size="11" fill="#8B949E" text-anchor="middle">Solo endpoints</text>
  <rect x="580" y="244" width="168" height="32" rx="4" fill="#161B22"/>
  <text x="664" y="264" font-family="system-ui, sans-serif" font-size="11" fill="#8B949E" text-anchor="middle">Solo Actions</text>

  <!-- Row 5: Local/on-premise -->
  <text x="12" y="312" font-family="system-ui, sans-serif" font-size="11" fill="#8B949E">Local / privado</text>
  <rect x="40" y="284" width="168" height="32" rx="4" fill="#0D2A0D"/>
  <text x="124" y="304" font-family="system-ui, sans-serif" font-size="12" fill="#3FB950" text-anchor="middle">✓ Sí</text>
  <rect x="220" y="284" width="168" height="32" rx="4" fill="#0D2A0D"/>
  <text x="304" y="304" font-family="system-ui, sans-serif" font-size="12" fill="#3FB950" text-anchor="middle">✓ Sí</text>
  <rect x="400" y="284" width="168" height="32" rx="4" fill="#0D2A0D"/>
  <text x="484" y="304" font-family="system-ui, sans-serif" font-size="12" fill="#3FB950" text-anchor="middle">✓ Sí</text>
  <rect x="580" y="284" width="168" height="32" rx="4" fill="#1A0C00"/>
  <text x="664" y="304" font-family="system-ui, sans-serif" font-size="12" fill="#F0883E" text-anchor="middle">× Solo cloud</text>

  <!-- Legend -->
  <rect x="40" y="334" width="14" height="14" rx="3" fill="#0D2A0D" stroke="#3FB950" stroke-width="1"/>
  <text x="60" y="345" font-family="system-ui, sans-serif" font-size="11" fill="#3FB950">Ventaja</text>
  <rect x="140" y="334" width="14" height="14" rx="3" fill="#1A0C00" stroke="#F0883E" stroke-width="1"/>
  <text x="160" y="345" font-family="system-ui, sans-serif" font-size="11" fill="#F0883E">Limitación</text>
  <text x="680" y="345" font-family="system-ui, sans-serif" font-size="10" fill="#8B949E" text-anchor="end">T=Tool · R=Resource · P=Prompt</text>
</svg>
